<svg width="17" height="17" viewBox="0 0 17 17" fill="none" xmlns="http://www.w3.org/2000/svg">
  <path d="M6.12709 6.15612L8.35834 9.0277C8.37482 9.04902 8.39597 9.06628 8.42016 9.07815C8.44435 9.09003 8.47093 9.0962 8.49788 9.0962C8.52483 9.0962 8.55142 9.09003 8.57561 9.07815C8.5998 9.06628 8.62094 9.04902 8.63742 9.0277L10.8729 6.15612C10.9061 6.11352 10.9485 6.07906 10.997 6.05536C11.0455 6.03167 11.0987 6.01937 11.1527 6.01941H13.056C13.1234 6.0193 13.1894 6.0384 13.2462 6.07447C13.3031 6.11054 13.3485 6.16208 13.3772 6.22306C13.4058 6.28403 13.4164 6.3519 13.4079 6.4187C13.3993 6.48551 13.3718 6.54849 13.3287 6.60024L8.77201 12.0693C8.73877 12.1091 8.69718 12.1412 8.65017 12.1632C8.60317 12.1852 8.55191 12.1966 8.50001 12.1966C8.44811 12.1966 8.39684 12.1852 8.34984 12.1632C8.30284 12.1412 8.26125 12.1091 8.22801 12.0693L3.6713 6.60024C3.62819 6.54849 3.60073 6.48551 3.59215 6.4187C3.58357 6.3519 3.59421 6.28403 3.62284 6.22306C3.65147 6.16208 3.69689 6.11054 3.75377 6.07447C3.81066 6.0384 3.87665 6.0193 3.94401 6.01941H5.8473C5.90127 6.01937 5.95453 6.03167 6.00303 6.05536C6.05152 6.07906 6.09395 6.11352 6.12709 6.15612Z" stroke="white" stroke-linecap="round" stroke-linejoin="round"/>
</svg>