<svg width="26" height="26" viewBox="0 0 26 26" fill="none" xmlns="http://www.w3.org/2000/svg">
  <path d="M9.47825 23.2709C8.38086 23.9787 7.07316 24.2873 5.77504 24.1446C4.47693 24.0018 3.26755 23.4164 2.3503 22.4868L1.5484 21.7027C1.19684 21.343 1 20.8602 1 20.3573C1 19.8544 1.19684 19.3714 1.5484 19.0119L4.952 15.6439C5.30859 15.2935 5.78854 15.0971 6.2885 15.0971C6.78845 15.0971 7.26841 15.2935 7.62498 15.6439C7.98457 15.9955 8.4675 16.1923 8.97039 16.1923C9.47329 16.1923 9.9562 15.9955 10.3158 15.6439L15.6617 10.298C15.8401 10.1222 15.9817 9.91277 16.0784 9.6818C16.175 9.45084 16.2248 9.20295 16.2248 8.95257C16.2248 8.70218 16.175 8.4543 16.0784 8.22332C15.9817 7.99236 15.8401 7.78291 15.6617 7.60716C15.3113 7.25059 15.115 6.77063 15.115 6.27068C15.115 5.77071 15.3113 5.29077 15.6617 4.93418L19.0475 1.5484C19.4071 1.19684 19.89 1 20.3929 1C20.8959 1 21.3787 1.19684 21.7384 1.5484L22.5225 2.3503C23.452 3.26755 24.0373 4.47693 24.1802 5.77504C24.323 7.07316 24.0145 8.38086 23.3064 9.47825C19.6177 14.9146 14.9241 19.5961 9.47825 23.2709Z" stroke="white" stroke-width="1.78571" stroke-linecap="round" stroke-linejoin="round"/>
</svg>