<svg width="26" height="26" viewBox="0 0 26 26" fill="none" xmlns="http://www.w3.org/2000/svg">
  <path d="M20.6429 9.03571C20.6429 14.3929 12.6071 20.6429 12.6071 20.6429C12.6071 20.6429 4.57143 14.3929 4.57143 9.03571C4.57143 4.65893 8.23036 1 12.6071 1C16.9839 1 20.6429 4.65893 20.6429 9.03571Z" stroke="white" stroke-width="1.78571" stroke-linecap="round" stroke-linejoin="round"/>
  <path d="M12.6071 11.7143C14.0865 11.7143 15.2857 10.5151 15.2857 9.03572C15.2857 7.55638 14.0865 6.35715 12.6071 6.35715C11.1278 6.35715 9.92857 7.55638 9.92857 9.03572C9.92857 10.5151 11.1278 11.7143 12.6071 11.7143Z" stroke="white" stroke-width="1.78571" stroke-linecap="round" stroke-linejoin="round"/>
  <path d="M19.888 17.9643H21.5357L24.2143 24.2143H1L3.67857 17.9643H5.32625" stroke="white" stroke-width="1.78571" stroke-linecap="round" stroke-linejoin="round"/>
</svg>