<svg width="24" height="25" viewBox="0 0 24 25" fill="none" xmlns="http://www.w3.org/2000/svg">
  <g clip-path="url(#clip0_9_91)">
    <path d="M1.5 2.75098H22.5C22.5 2.75098 23.5 2.75098 23.5 3.75098V22.751C23.5 22.751 23.5 23.751 22.5 23.751H1.5C1.5 23.751 0.5 23.751 0.5 22.751V3.75098C0.5 3.75098 0.5 2.75098 1.5 2.75098Z" stroke="white" stroke-linecap="round" stroke-linejoin="round"/>
    <path d="M5.5 0.750977V5.75098" stroke="white" stroke-linecap="round" stroke-linejoin="round"/>
    <path d="M18.5 0.750977V5.75098" stroke="white" stroke-linecap="round" stroke-linejoin="round"/>
    <path d="M0.5 7.75098H23.5" stroke="white" stroke-linecap="round" stroke-linejoin="round"/>
    <path d="M6.5 19.251H11.5" stroke="white" stroke-linecap="round" stroke-linejoin="round"/>
    <path d="M9 19.25V11.75C9.00005 11.6559 8.97351 11.5636 8.92343 11.4839C8.87335 11.4041 8.80177 11.3401 8.71692 11.2993C8.63208 11.2584 8.53742 11.2423 8.44385 11.2529C8.35027 11.2635 8.26159 11.3003 8.188 11.359L6.5 12.71" stroke="white" stroke-linecap="round" stroke-linejoin="round"/>
    <path d="M15.5 19.2499L18.431 11.9949C18.4774 11.9196 18.5016 11.8327 18.5007 11.7442C18.4998 11.6557 18.4739 11.5693 18.426 11.4949C18.3755 11.4184 18.3065 11.3559 18.2254 11.3131C18.1443 11.2702 18.0537 11.2485 17.962 11.2499H14C13.8674 11.2499 13.7402 11.3026 13.6464 11.3964C13.5527 11.4902 13.5 11.6173 13.5 11.7499V12.7499" stroke="white" stroke-linecap="round" stroke-linejoin="round"/>
  </g>
  <defs>
    <clipPath id="clip0_9_91">
      <rect width="24" height="24" fill="white" transform="translate(0 0.25)"/>
    </clipPath>
  </defs>
</svg>