<svg width="24" height="24" viewBox="0 0 24 24" fill="none" xmlns="http://www.w3.org/2000/svg">
  <g clip-path="url(#clip0_9_75)">
    <path d="M14.516 10.085V5.58496H3.51599V18.584L9.01599 18.585" stroke="white" stroke-linecap="round" stroke-linejoin="round"/>
    <path d="M17.516 9.08502V3.58502C17.516 3.3198 17.4106 3.06545 17.2231 2.87791C17.0356 2.69038 16.7812 2.58502 16.516 2.58502H12.068C11.8086 1.99198 11.3819 1.48742 10.8402 1.13311C10.2985 0.778794 9.66528 0.590088 9.01799 0.590088C8.3707 0.590088 7.73745 0.778794 7.19575 1.13311C6.65405 1.48742 6.22739 1.99198 5.96799 2.58502H1.51599C1.25077 2.58502 0.996421 2.69038 0.808884 2.87791C0.621348 3.06545 0.515991 3.3198 0.515991 3.58502V20.585C0.515991 20.8502 0.621348 21.1046 0.808884 21.2921C0.996421 21.4797 1.25077 21.585 1.51599 21.585H10.016" stroke="white" stroke-linecap="round" stroke-linejoin="round"/>
    <path d="M6.51599 8.58496H11.516" stroke="white" stroke-linecap="round" stroke-linejoin="round"/>
    <path d="M6.51599 11.585H11.516" stroke="white" stroke-linecap="round" stroke-linejoin="round"/>
    <path d="M6.51599 14.585H9.51599" stroke="white" stroke-linecap="round" stroke-linejoin="round"/>
    <path d="M17.877 23.209C17.8303 23.2577 17.7743 23.2964 17.7122 23.3229C17.6502 23.3494 17.5835 23.363 17.516 23.363C17.4485 23.363 17.3818 23.3494 17.3197 23.3229C17.2577 23.2964 17.2017 23.2577 17.155 23.209L12.4 18.251C11.951 17.8018 11.6547 17.2229 11.5529 16.596C11.4511 15.9691 11.5491 15.3261 11.833 14.758C12.0475 14.3292 12.3608 13.9575 12.7471 13.6736C13.1334 13.3896 13.5816 13.2015 14.0548 13.1247C14.5281 13.048 15.0128 13.0848 15.469 13.2321C15.9253 13.3794 16.34 13.633 16.679 13.972L17.514 14.807L18.349 13.972C18.6879 13.633 19.1025 13.3794 19.5587 13.2321C20.0149 13.0848 20.4995 13.048 20.9727 13.1247C21.4459 13.2015 21.894 13.3896 22.2802 13.6736C22.6664 13.9575 22.9796 14.3292 23.194 14.758C23.4778 15.326 23.5759 15.9689 23.4743 16.5958C23.3728 17.2226 23.0767 17.8016 22.628 18.251L17.877 23.209Z" stroke="white" stroke-linecap="round" stroke-linejoin="round"/>
  </g>
  <defs>
    <clipPath id="clip0_9_75">
      <rect width="24" height="24" fill="white"/>
    </clipPath>
  </defs>
</svg>