<svg width="26" height="26" viewBox="0 0 26 26" fill="none" xmlns="http://www.w3.org/2000/svg">
  <path d="M24.2143 12.5C24.2161 12.2521 24.1661 12.0066 24.0677 11.7791C23.9693 11.5516 23.8246 11.3471 23.6429 11.1786L12.6072 1L1.57147 11.1786C1.38973 11.3471 1.24506 11.5516 1.14668 11.7791C1.0483 12.0066 0.998364 12.2521 1.00004 12.5V22.4286C1.00004 22.9021 1.18818 23.3564 1.52306 23.6912C1.85795 24.0261 2.31216 24.2143 2.78575 24.2143H22.4286C22.9021 24.2143 23.3564 24.0261 23.6912 23.6912C24.0262 23.3564 24.2143 22.9021 24.2143 22.4286V12.5Z" stroke="white" stroke-width="1.78571" stroke-linecap="round" stroke-linejoin="round"/>
  <path d="M12.6071 24.2143V17.0714" stroke="white" stroke-width="1.78571" stroke-linecap="round" stroke-linejoin="round"/>
</svg>