<svg width="24" height="24" viewBox="0 0 24 24" fill="none" xmlns="http://www.w3.org/2000/svg">
  <g clip-path="url(#clip0_9_53)">
    <path d="M12.5 11.5H22.5C22.5 11.5 23.5 11.5 23.5 12.5V22.5C23.5 22.5 23.5 23.5 22.5 23.5H12.5C12.5 23.5 11.5 23.5 11.5 22.5V12.5C11.5 12.5 11.5 11.5 12.5 11.5Z" stroke="white" stroke-linecap="round" stroke-linejoin="round"/>
    <path d="M14.5 14.5H20.5" stroke="white" stroke-linecap="round" stroke-linejoin="round"/>
    <path d="M14.5 17.5H20.5" stroke="white" stroke-linecap="round" stroke-linejoin="round"/>
    <path d="M14.5 20.5H16.75" stroke="white" stroke-linecap="round" stroke-linejoin="round"/>
    <path d="M8.5 10.571C7.5066 10.4285 6.49417 10.501 5.53126 10.7838C4.56835 11.0666 3.67744 11.5529 2.91885 12.21C2.16026 12.867 1.5517 13.6794 1.13438 14.5921C0.717054 15.5048 0.500713 16.4965 0.5 17.5H8.5" stroke="white" stroke-linecap="round" stroke-linejoin="round"/>
    <path d="M3.83801 2.59204C4.49608 3.27467 5.28502 3.81761 6.15769 4.1884C7.03036 4.55919 7.96884 4.75021 8.91701 4.75004C9.87781 4.75085 10.8286 4.55517 11.711 4.17504" stroke="white" stroke-linecap="round" stroke-linejoin="round"/>
    <path d="M3.25 4.75C3.25 5.87717 3.69777 6.95817 4.4948 7.7552C5.29183 8.55223 6.37283 9 7.5 9C8.62717 9 9.70817 8.55223 10.5052 7.7552C11.3022 6.95817 11.75 5.87717 11.75 4.75C11.75 3.62283 11.3022 2.54183 10.5052 1.7448C9.70817 0.947767 8.62717 0.5 7.5 0.5C6.37283 0.5 5.29183 0.947767 4.4948 1.7448C3.69777 2.54183 3.25 3.62283 3.25 4.75Z" stroke="white" stroke-linecap="round" stroke-linejoin="round"/>
  </g>
  <defs>
    <clipPath id="clip0_9_53">
      <rect width="24" height="24" fill="white"/>
    </clipPath>
  </defs>
</svg>