<svg width="23" height="25" viewBox="0 0 23 25" fill="none" xmlns="http://www.w3.org/2000/svg">
  <path d="M8.19646 4L8.93361 2.09714C9.05793 1.77497 9.27665 1.49785 9.56112 1.30208C9.84561 1.10631 10.1826 1.00102 10.5279 1H11.9336C12.2789 1.00102 12.6159 1.10631 12.9004 1.30208C13.1849 1.49785 13.4036 1.77497 13.5279 2.09714L14.265 4L16.7678 5.44L18.7907 5.13143C19.1275 5.08571 19.4704 5.14115 19.7757 5.29072C20.0809 5.44029 20.3347 5.67722 20.505 5.97143L21.1907 7.17143C21.3664 7.47031 21.4475 7.81545 21.423 8.16129C21.3985 8.50713 21.2697 8.83742 21.0535 9.10857L19.8021 10.7029V13.5829L21.0878 15.1771C21.304 15.4483 21.4327 15.7786 21.4573 16.1244C21.4818 16.4703 21.4007 16.8154 21.225 17.1143L20.5393 18.3143C20.369 18.6085 20.1151 18.8454 19.81 18.995C19.5047 19.1445 19.1618 19.2001 18.825 19.1543L16.8021 18.8457L14.2993 20.2857L13.5622 22.1886C13.4379 22.5107 13.2191 22.7879 12.9347 22.9837C12.6502 23.1794 12.3132 23.2847 11.9679 23.2857H10.5279C10.1826 23.2847 9.84561 23.1794 9.56112 22.9837C9.27665 22.7879 9.05793 22.5107 8.93361 22.1886L8.19646 20.2857L5.69361 18.8457L3.67075 19.1543C3.33393 19.2001 2.9911 19.1445 2.68586 18.995C2.38063 18.8454 2.12674 18.6085 1.95646 18.3143L1.27075 17.1143C1.09503 16.8154 1.01409 16.4703 1.03857 16.1244C1.06305 15.7786 1.19182 15.4483 1.40789 15.1771L2.65932 13.5829V10.7029L1.37361 9.10857C1.15754 8.83742 1.02876 8.50713 1.00428 8.16129C0.9798 7.81545 1.06075 7.47031 1.23646 7.17143L1.92218 5.97143C2.09246 5.67722 2.34634 5.44029 2.65157 5.29072C2.95682 5.14115 3.29964 5.08571 3.63646 5.13143L5.65932 5.44L8.19646 4ZM7.80218 12.1429C7.80218 12.821 8.00326 13.4838 8.37999 14.0477C8.75674 14.6115 9.2922 15.0509 9.91869 15.3104C10.5452 15.5699 11.2346 15.6378 11.8996 15.5055C12.5647 15.3733 13.1756 15.0467 13.6551 14.5672C14.1346 14.0877 14.4611 13.4768 14.5934 12.8117C14.7257 12.1467 14.6578 11.4573 14.3983 10.8308C14.1388 10.2043 13.6994 9.66883 13.1356 9.2921C12.5717 8.91537 11.9089 8.71429 11.2307 8.71429C10.3214 8.71429 9.44937 9.0755 8.80639 9.7185C8.16341 10.3615 7.80218 11.2335 7.80218 12.1429Z" stroke="white" stroke-width="1.71429" stroke-linecap="round" stroke-linejoin="round"/>
</svg>