<svg width="25" height="25" viewBox="0 0 25 25" fill="none" xmlns="http://www.w3.org/2000/svg">
  <g clip-path="url(#clip0_9_40)">
    <path d="M15.5 4.5C15.5 5.29565 15.8161 6.05871 16.3787 6.62132C16.9413 7.18393 17.7044 7.5 18.5 7.5C19.2956 7.5 20.0587 7.18393 20.6213 6.62132C21.1839 6.05871 21.5 5.29565 21.5 4.5C21.5 3.70435 21.1839 2.94129 20.6213 2.37868C20.0587 1.81607 19.2956 1.5 18.5 1.5C17.7044 1.5 16.9413 1.81607 16.3787 2.37868C15.8161 2.94129 15.5 3.70435 15.5 4.5Z" stroke="white" stroke-linecap="round" stroke-linejoin="round"/>
    <path d="M16 21.525L16.248 24H20.748L21.498 16.5H23.748V14.25C23.7467 12.8588 23.1933 11.5249 22.2093 10.5413C21.2254 9.55772 19.8913 9.00482 18.5 9.00403C18.418 9.00403 18.336 9.00603 18.254 9.01003" stroke="white" stroke-linecap="round" stroke-linejoin="round"/>
    <path d="M7.25 9C5.179 9 4.25 10.5 3.5 12.75L1.25 19.5H4.25L5 24H9.5L9.912 21.527" stroke="white" stroke-linecap="round" stroke-linejoin="round"/>
    <path d="M4.25 4.5C4.25 5.29565 4.56607 6.05871 5.12868 6.62132C5.69129 7.18393 6.45435 7.5 7.25 7.5C8.04565 7.5 8.80871 7.18393 9.37132 6.62132C9.93393 6.05871 10.25 5.29565 10.25 4.5C10.25 3.70435 9.93393 2.94129 9.37132 2.37868C8.80871 1.81607 8.04565 1.5 7.25 1.5C6.45435 1.5 5.69129 1.81607 5.12868 2.37868C4.56607 2.94129 4.25 3.70435 4.25 4.5Z" stroke="white" stroke-linecap="round" stroke-linejoin="round"/>
    <path d="M12.25 20.0601C12.25 20.1927 12.3027 20.3198 12.3964 20.4136C12.4902 20.5074 12.6174 20.5601 12.75 20.5601C12.8826 20.5601 13.0098 20.5074 13.1036 20.4136C13.1973 20.3198 13.25 20.1927 13.25 20.0601C13.25 19.9275 13.1973 19.8003 13.1036 19.7065C13.0098 19.6127 12.8826 19.5601 12.75 19.5601C12.6174 19.5601 12.4902 19.6127 12.3964 19.7065C12.3027 19.8003 12.25 19.9275 12.25 20.0601Z" stroke="white" stroke-linecap="round" stroke-linejoin="round"/>
    <path d="M10.017 12.4499C10.0172 11.9572 10.1506 11.4738 10.403 11.0507C10.6555 10.6276 11.0176 10.2806 11.4511 10.0464C11.8846 9.81224 12.3733 9.69963 12.8656 9.72046C13.3578 9.7413 13.8353 9.89482 14.2475 10.1648C14.6596 10.4347 14.9911 10.8111 15.2069 11.254C15.4227 11.6969 15.5148 12.19 15.4733 12.6809C15.4319 13.1719 15.2585 13.6425 14.9715 14.043C14.6845 14.4434 14.2946 14.7589 13.843 14.9559C13.5182 15.098 13.2419 15.3316 13.0478 15.6282C12.8537 15.9248 12.7502 16.2715 12.75 16.6259V17.0059" stroke="white" stroke-linecap="round" stroke-linejoin="round"/>
  </g>
  <defs>
    <clipPath id="clip0_9_40">
      <rect width="24" height="24" fill="white" transform="translate(0.5 0.75)"/>
    </clipPath>
  </defs>
</svg>