<svg width="25" height="25" viewBox="0 0 25 25" fill="none" xmlns="http://www.w3.org/2000/svg">
  <path d="M12.1429 13.8571C14.5098 13.8571 16.4286 11.9383 16.4286 9.57136C16.4286 7.20443 14.5098 5.28564 12.1429 5.28564C9.77593 5.28564 7.85715 7.20443 7.85715 9.57136C7.85715 11.9383 9.77593 13.8571 12.1429 13.8571Z" stroke="white" stroke-width="1.71429" stroke-linecap="round" stroke-linejoin="round"/>
  <path d="M4.82281 20.5429C5.5878 19.2872 6.66295 18.2494 7.94489 17.5294C9.22683 16.8091 10.6725 16.4309 12.1428 16.4309C13.6132 16.4309 15.0588 16.8091 16.3407 17.5294C17.6227 18.2494 18.6978 19.2872 19.4628 20.5429" stroke="white" stroke-width="1.71429" stroke-linecap="round" stroke-linejoin="round"/>
  <path d="M12.1429 23.2857C18.297 23.2857 23.2857 18.297 23.2857 12.1429C23.2857 5.98883 18.297 1 12.1429 1C5.98883 1 1 5.98883 1 12.1429C1 18.297 5.98883 23.2857 12.1429 23.2857Z" stroke="white" stroke-width="1.71429" stroke-linecap="round" stroke-linejoin="round"/>
</svg>