<svg width="24" height="24" viewBox="0 0 24 24" fill="none" xmlns="http://www.w3.org/2000/svg">
  <path d="M11.9343 1C5.97892 1.00186 1.00338 5.98381 1.0034 11.9343C1.00341 14.0795 1.6419 16.1987 2.8336 17.9902L1 22.8686L7.14001 21.7582C8.63988 22.4913 10.2869 22.8586 11.9343 22.8597C17.8948 22.8638 22.8749 17.8884 22.8749 11.9343C22.8749 5.98694 17.893 0.996484 11.9343 1Z" stroke="white" stroke-width="1.78571" stroke-linecap="round" stroke-linejoin="round"/>
  <path d="M12.5361 16.7497C14.0153 17.6993 15.5576 17.0076 16.6316 16.2066C17.3735 15.6533 17.3489 14.586 16.7152 13.9115L15.4657 12.5813C14.9918 13.0553 14.0682 13.2899 13.4264 13.0945C12.0471 12.6747 11.4681 11.956 10.999 11.2251C10.4601 10.3857 11.0686 9.1321 11.5426 8.65816L10.1499 7.38671C9.56276 6.85071 8.67094 6.76026 8.15865 7.36821C7.14504 8.57103 6.51467 10.3972 7.26122 11.5599C8.6014 13.6473 10.4486 15.4097 12.5361 16.7497Z" stroke="white" stroke-width="1.78571" stroke-linecap="round" stroke-linejoin="round"/>
</svg>